<mxfile host="app.diagrams.net" modified="2022-08-04T05:05:55.273Z" agent="5.0 (Macintosh; Intel Mac OS X 10_15_7) AppleWebKit/537.36 (KHTML, like Gecko) Chrome/103.0.0.0 Safari/537.36" etag="UZg6JKkKw-XV0gKlc4gy" version="20.2.2" type="github">
  <diagram name="Page-1" id="2ca16b54-16f6-2749-3443-fa8db7711227">
    <mxGraphModel dx="2066" dy="1129" grid="1" gridSize="10" guides="1" tooltips="1" connect="1" arrows="1" fold="1" page="1" pageScale="1" pageWidth="1100" pageHeight="850" background="none" math="0" shadow="0">
      <root>
        <mxCell id="0" />
        <mxCell id="1" parent="0" />
        <mxCell id="kUiwtPWe92aiPqsqUSdf-5" value="系统层（Native）&lt;br&gt;(JsBridge)" style="rounded=0;whiteSpace=wrap;html=1;fontSize=14;" vertex="1" parent="1">
          <mxGeometry x="200" y="480" width="460" height="220" as="geometry" />
        </mxCell>
        <mxCell id="kUiwtPWe92aiPqsqUSdf-6" value="视图层（Web View）" style="rounded=0;whiteSpace=wrap;html=1;fontSize=14;" vertex="1" parent="1">
          <mxGeometry x="80" y="160" width="230" height="160" as="geometry" />
        </mxCell>
        <mxCell id="kUiwtPWe92aiPqsqUSdf-7" value="Service" style="rounded=0;whiteSpace=wrap;html=1;fontSize=14;" vertex="1" parent="1">
          <mxGeometry x="540" y="160" width="250" height="160" as="geometry" />
        </mxCell>
        <mxCell id="kUiwtPWe92aiPqsqUSdf-10" value="Event" style="html=1;verticalAlign=bottom;startArrow=oval;startFill=1;endArrow=block;startSize=8;rounded=0;fontSize=14;" edge="1" parent="1">
          <mxGeometry width="60" relative="1" as="geometry">
            <mxPoint x="120" y="320" as="sourcePoint" />
            <mxPoint x="200" y="570" as="targetPoint" />
            <Array as="points">
              <mxPoint x="120" y="570" />
            </Array>
          </mxGeometry>
        </mxCell>
        <mxCell id="kUiwtPWe92aiPqsqUSdf-13" value="Data" style="html=1;verticalAlign=bottom;startArrow=oval;startFill=1;endArrow=block;startSize=8;rounded=0;fontSize=14;entryX=0.75;entryY=1;entryDx=0;entryDy=0;" edge="1" parent="1" target="kUiwtPWe92aiPqsqUSdf-16">
          <mxGeometry width="60" relative="1" as="geometry">
            <mxPoint x="240" y="480" as="sourcePoint" />
            <mxPoint x="240" y="330" as="targetPoint" />
          </mxGeometry>
        </mxCell>
        <mxCell id="kUiwtPWe92aiPqsqUSdf-14" value="Page" style="whiteSpace=wrap;html=1;aspect=fixed;fontSize=14;" vertex="1" parent="1">
          <mxGeometry x="100" y="265" width="50" height="50" as="geometry" />
        </mxCell>
        <mxCell id="kUiwtPWe92aiPqsqUSdf-15" value="Page" style="whiteSpace=wrap;html=1;aspect=fixed;fontSize=14;" vertex="1" parent="1">
          <mxGeometry x="150" y="265" width="50" height="50" as="geometry" />
        </mxCell>
        <mxCell id="kUiwtPWe92aiPqsqUSdf-16" value="Page" style="whiteSpace=wrap;html=1;aspect=fixed;fontSize=14;" vertex="1" parent="1">
          <mxGeometry x="200" y="265" width="50" height="50" as="geometry" />
        </mxCell>
        <mxCell id="kUiwtPWe92aiPqsqUSdf-17" value="存储能力" style="rounded=0;whiteSpace=wrap;html=1;fontSize=14;" vertex="1" parent="1">
          <mxGeometry x="220" y="640" width="100" height="50" as="geometry" />
        </mxCell>
        <mxCell id="kUiwtPWe92aiPqsqUSdf-18" value="网络请求" style="rounded=0;whiteSpace=wrap;html=1;fontSize=14;" vertex="1" parent="1">
          <mxGeometry x="330" y="640" width="100" height="50" as="geometry" />
        </mxCell>
        <mxCell id="kUiwtPWe92aiPqsqUSdf-19" value="Event" style="html=1;verticalAlign=bottom;startArrow=oval;startFill=1;endArrow=block;startSize=8;rounded=0;fontSize=14;entryX=0.8;entryY=1.019;entryDx=0;entryDy=0;entryPerimeter=0;" edge="1" parent="1" target="kUiwtPWe92aiPqsqUSdf-7">
          <mxGeometry width="60" relative="1" as="geometry">
            <mxPoint x="660" y="560" as="sourcePoint" />
            <mxPoint x="740" y="470" as="targetPoint" />
            <Array as="points">
              <mxPoint x="740" y="560" />
            </Array>
          </mxGeometry>
        </mxCell>
        <mxCell id="kUiwtPWe92aiPqsqUSdf-20" value="Api" style="rounded=0;whiteSpace=wrap;html=1;fontSize=14;" vertex="1" parent="1">
          <mxGeometry x="620" y="270" width="90" height="45" as="geometry" />
        </mxCell>
        <mxCell id="kUiwtPWe92aiPqsqUSdf-21" value="Data" style="html=1;verticalAlign=bottom;startArrow=oval;startFill=1;endArrow=block;startSize=8;rounded=0;fontSize=14;entryX=0.828;entryY=-0.018;entryDx=0;entryDy=0;entryPerimeter=0;" edge="1" parent="1" target="kUiwtPWe92aiPqsqUSdf-5">
          <mxGeometry width="60" relative="1" as="geometry">
            <mxPoint x="580" y="320" as="sourcePoint" />
            <mxPoint x="580" y="440" as="targetPoint" />
          </mxGeometry>
        </mxCell>
        <mxCell id="kUiwtPWe92aiPqsqUSdf-22" value="第三方服务" style="rounded=0;whiteSpace=wrap;html=1;fontSize=14;" vertex="1" parent="1">
          <mxGeometry x="290" y="850" width="240" height="50" as="geometry" />
        </mxCell>
        <mxCell id="kUiwtPWe92aiPqsqUSdf-23" value="HTTPS" style="endArrow=block;startArrow=block;endFill=1;startFill=1;html=1;rounded=0;fontSize=14;" edge="1" parent="1">
          <mxGeometry width="160" relative="1" as="geometry">
            <mxPoint x="400" y="840" as="sourcePoint" />
            <mxPoint x="400" y="710" as="targetPoint" />
          </mxGeometry>
        </mxCell>
        <mxCell id="kUiwtPWe92aiPqsqUSdf-24" value="支付" style="rounded=0;whiteSpace=wrap;html=1;fontSize=14;" vertex="1" parent="1">
          <mxGeometry x="440" y="640" width="100" height="50" as="geometry" />
        </mxCell>
        <mxCell id="kUiwtPWe92aiPqsqUSdf-25" value="..." style="rounded=0;whiteSpace=wrap;html=1;fontSize=14;" vertex="1" parent="1">
          <mxGeometry x="550" y="640" width="100" height="50" as="geometry" />
        </mxCell>
        <mxCell id="kUiwtPWe92aiPqsqUSdf-26" value="独立线程" style="text;html=1;strokeColor=none;fillColor=none;align=center;verticalAlign=middle;whiteSpace=wrap;rounded=0;fontSize=14;" vertex="1" parent="1">
          <mxGeometry x="145" y="120" width="60" height="30" as="geometry" />
        </mxCell>
      </root>
    </mxGraphModel>
  </diagram>
</mxfile>
